<svg width="44" height="352" viewBox="0 0 44 352" fill="none" xmlns="http://www.w3.org/2000/svg">
<path fill-rule="evenodd" clip-rule="evenodd" d="M43.2421 352L1.20007 352L1.20007 340.125L43.2421 340.125L43.2421 352ZM43.2421 301.162L27.1358 301.162L27.1358 318.203L43.2421 318.203L43.2421 330.077L1.20007 330.077L1.20007 318.203L16.1694 318.203L16.1694 301.162L1.20007 301.162L1.20007 289.288L43.2421 289.288L43.2421 301.162ZM16.6628 300.663L16.6628 318.702L1.69352 318.702L1.69352 329.577L42.7486 329.577L42.7486 318.702L26.6424 318.702L26.6424 300.663L42.7486 300.663L42.7486 289.788L1.69352 289.788L1.69352 300.663L16.6628 300.663ZM11.5349 283.891L1.20007 283.891L1.20007 243.869L11.5349 243.869L11.5349 257.943L43.2421 257.943L43.2421 269.817L11.5349 269.817L11.5349 283.891ZM11.0414 269.318L42.7486 269.318L42.7486 258.443L11.0414 258.443L11.0414 244.369L1.69352 244.369L1.69352 283.391L11.0414 283.391L11.0414 269.318ZM43.2421 238.494L1.20007 238.494L1.20006 203.27L11.5349 203.27L11.5349 226.62L16.2325 226.62L16.2325 204.422L26.5674 204.422L26.5674 226.62L32.9072 226.62L32.9072 203.143L43.2421 203.143L43.2421 238.494ZM33.4007 227.119L26.0739 227.119L26.0739 204.922L16.726 204.922L16.726 227.119L11.0414 227.119L11.0414 203.77L1.69352 203.77L1.69352 237.994L42.7486 237.994L42.7486 203.642L33.4007 203.642L33.4007 227.119ZM43.242 164.975L27.1358 164.975L27.1358 182.015L43.2421 182.015L43.2421 193.89L1.20006 193.89L1.20006 182.015L16.1694 182.015L16.1694 164.975L1.20006 164.975L1.20006 153.101L43.242 153.101L43.242 164.975ZM16.6628 164.475L16.6628 182.515L1.69351 182.515L1.69351 193.39L42.7486 193.39L42.7486 182.515L26.6424 182.515L26.6424 164.475L42.7486 164.475L42.7486 153.6L1.69351 153.6L1.69351 164.475L16.6628 164.475ZM26.0858 111.477L26.0858 99.4297L29.3048 99.4297L29.3745 99.451C37.5784 101.957 44 110.946 44 122.319C44 129.047 41.865 134.916 38.0259 139.108C34.1831 143.303 28.6639 145.784 21.9684 145.784C15.2728 145.784 9.7689 143.303 5.94183 139.107C2.1186 134.915 -9.74563e-06 129.046 -1.00397e-05 122.319C-1.05108e-05 111.54 5.39528 102.414 14.6189 99.4531L14.6917 99.4297L17.9142 99.4297L17.9142 111.541L17.5867 111.659C13.3981 113.174 10.9664 116.987 10.9664 122.319C10.9664 125.801 12.0085 128.642 13.8762 130.609C15.7415 132.574 18.4782 133.718 21.9684 133.718C25.4914 133.718 28.2439 132.573 30.1165 130.608C31.9915 128.641 33.0335 125.801 33.0335 122.319C33.0335 116.984 30.5992 113.109 26.4132 111.595L26.0858 111.477ZM43.242 78.2306L43.242 91.9367L1.20006 91.9367L1.20006 80.0622L28.3726 80.0622L1.20006 63.6376L1.20006 49.932L43.242 49.932L43.242 61.8065L15.9663 61.8065L43.242 78.2306ZM15.0206 61.3068L42.7486 61.3068L42.7486 50.4318L1.69351 50.4318L1.69351 63.3539L29.4215 80.1141L29.4215 80.5619L1.69351 80.5619L1.69351 91.4369L42.7486 91.4369L42.7486 78.5149L15.0206 61.8186L15.0206 61.3068ZM43.242 40.0856L1.20006 40.0856L1.20006 15.8008L1.2681 15.8008C1.34964 11.6406 2.45112 7.97278 4.42496 5.30194C6.48641 2.51257 9.4874 0.831634 13.1889 0.831634C16.7005 0.831634 19.5624 2.57452 21.6452 5.30957L21.7688 5.30957C23.9199 2.13074 27.0962 -1.18441e-06 30.9374 -1.35232e-06C34.7295 -1.51808e-06 37.8239 1.69321 39.9576 4.49667C42.0832 7.28946 43.242 11.1625 43.242 15.5329L43.242 40.0856ZM21.3999 5.80936C19.3788 3.05859 16.5997 1.33139 13.1889 1.33139C6.11482 1.33139 1.75667 7.72845 1.75667 16.3005L1.69351 16.3005L1.69351 39.5858L42.7486 39.5858L42.7486 15.5329C42.7486 6.96078 38.201 0.499785 30.9374 0.499785C27.2108 0.499785 24.1159 2.61081 22.0316 5.80936L21.3999 5.80936ZM26.7055 28.7108L26.7055 15.5329C26.7055 13.102 27.9056 11.5027 29.9899 11.5027C32.1374 11.5027 33.4007 13.102 33.4007 15.5329L33.4007 28.7108L26.7055 28.7108ZM32.9072 28.211L32.9072 15.5329C32.9072 14.4002 32.6129 13.5179 32.1229 12.9279C31.6417 12.3482 30.933 12.0025 29.9899 12.0025C29.0844 12.0025 28.4094 12.3435 27.9501 12.92C27.4804 13.5097 27.199 14.3945 27.199 15.5329L27.199 28.211L32.9072 28.211ZM11.0414 28.7108L11.0414 16.3005C11.0414 13.8696 12.1783 12.2704 14.1364 12.2704C16.1575 12.2704 17.3576 13.8696 17.3576 16.3005L17.3576 28.7108L11.0414 28.7108ZM16.8642 28.211L16.8642 16.3005C16.8642 15.1623 16.5827 14.2758 16.1187 13.685C15.6651 13.1074 15.0054 12.7701 14.1364 12.7701C13.3056 12.7701 12.6795 13.1017 12.2473 13.6766C11.8032 14.2674 11.5349 15.1567 11.5349 16.3005L11.5349 28.211L16.8642 28.211ZM42.7486 351.5L42.7486 340.625L1.69352 340.625L1.69352 351.5L42.7486 351.5ZM26.5792 111.124C31.0005 112.724 33.527 116.818 33.527 122.319C33.527 129.484 29.232 134.218 21.9684 134.218C14.768 134.218 10.473 129.484 10.473 122.319C10.473 116.818 12.9995 112.788 17.4208 111.188L17.4208 99.9295L14.768 99.9295C5.79902 102.808 0.49344 111.7 0.49344 122.319C0.493441 135.561 8.83078 145.285 21.9684 145.285C35.106 145.285 43.5065 135.561 43.5065 122.319C43.5065 111.124 37.1904 102.36 29.232 99.9295L26.5792 99.9295L26.5792 111.124Z" fill="#FCCA7C" fill-opacity="0.4"/>
</svg>
