<svg width="44" height="352" viewBox="0 0 44 352" fill="none" xmlns="http://www.w3.org/2000/svg">
<path fill-rule="evenodd" clip-rule="evenodd" d="M0.757942 1.89017e-06L42.7999 5.24568e-08L42.7999 11.8745L0.757943 11.8745L0.757942 1.89017e-06ZM0.757944 50.8376L16.8642 50.8376L16.8642 33.7974L0.757944 33.7974L0.757943 21.9229L42.7999 21.9229L42.7999 33.7974L27.8306 33.7974L27.8306 50.8376L42.7999 50.8376L42.7999 62.7121L0.757945 62.7121L0.757944 50.8376ZM27.3372 51.3374L27.3372 33.2977L42.3065 33.2977L42.3065 22.4227L1.25139 22.4227L1.25139 33.2977L17.3576 33.2977L17.3576 51.3374L1.25139 51.3374L1.2514 62.2124L42.3065 62.2124L42.3065 51.3374L27.3372 51.3374ZM32.4651 68.1091L42.7999 68.1091L42.7999 108.131L32.4651 108.131L32.4651 94.0572L0.757946 94.0572L0.757946 82.1827L32.4651 82.1827L32.4651 68.1091ZM32.9586 82.6824L1.2514 82.6824L1.2514 93.5574L32.9586 93.5574L32.9586 107.631L42.3065 107.631L42.3065 68.6089L32.9586 68.6089L32.9586 82.6824ZM0.757947 113.506L42.7999 113.506L42.7999 148.73L32.4651 148.73L32.4651 125.38L27.7675 125.38L27.7675 147.578L17.4326 147.578L17.4326 125.38L11.0928 125.38L11.0928 148.857L0.757949 148.857L0.757947 113.506ZM10.5993 124.881L17.9261 124.881L17.9261 147.078L27.274 147.078L27.274 124.881L32.9586 124.881L32.9586 148.23L42.3065 148.23L42.3065 114.006L1.2514 114.006L1.2514 148.358L10.5993 148.358L10.5993 124.881ZM0.75795 187.025L16.8642 187.025L16.8642 169.985L0.75795 169.985L0.757949 158.11L42.7999 158.11L42.7999 169.985L27.8306 169.985L27.8306 187.025L42.7999 187.025L42.7999 198.899L0.757951 198.899L0.75795 187.025ZM27.3372 187.525L27.3372 169.485L42.3065 169.485L42.3065 158.61L1.2514 158.61L1.2514 169.485L17.3576 169.485L17.3576 187.525L1.2514 187.525L1.2514 198.4L42.3065 198.4L42.3065 187.525L27.3372 187.525ZM17.9142 240.523L17.9142 252.57L14.6952 252.57L14.6255 252.549C6.42157 250.043 1.05368e-05 241.054 1.00397e-05 229.681C9.74559e-06 222.953 2.13503 217.084 5.97414 212.892C9.81686 208.697 15.3361 206.216 22.0316 206.216C28.7272 206.216 34.2311 208.697 38.0582 212.893C41.8814 217.085 44 222.954 44 229.681C44 240.46 38.6047 249.586 29.3811 252.547L29.3083 252.57L26.0858 252.57L26.0858 240.459L26.4133 240.341C30.6019 238.826 33.0336 235.013 33.0336 229.681C33.0336 226.199 31.9915 223.358 30.1238 221.391C28.2585 219.426 25.5218 218.282 22.0316 218.282C18.5086 218.282 15.7561 219.427 13.8835 221.392C12.0085 223.359 10.9665 226.199 10.9665 229.681C10.9665 235.016 13.4008 238.891 17.5868 240.405L17.9142 240.523ZM0.757954 273.769L0.757954 260.063L42.7999 260.063L42.7999 271.938L15.6274 271.938L42.7999 288.362L42.7999 302.068L0.757955 302.068L0.757955 290.193L28.0337 290.193L0.757954 273.769ZM28.9794 290.693L1.25141 290.693L1.25141 301.568L42.3065 301.568L42.3065 288.646L14.5785 271.886L14.5785 271.438L42.3065 271.438L42.3065 260.563L1.2514 260.563L1.2514 273.485L28.9794 290.181L28.9794 290.693ZM0.757956 311.914L42.7999 311.914L42.7999 336.199L42.7319 336.199C42.6504 340.359 41.5489 344.027 39.575 346.698C37.5136 349.487 34.5126 351.168 30.8111 351.168C27.2995 351.168 24.4376 349.425 22.3548 346.69L22.2312 346.69C20.0801 349.869 16.9038 352 13.0626 352C9.27046 352 6.17606 350.307 4.04236 347.503C1.91681 344.711 0.757957 340.838 0.757957 336.467L0.757956 311.914ZM22.6001 346.191C24.6212 348.941 27.4003 350.669 30.8111 350.669C37.8852 350.669 42.2433 344.272 42.2433 335.699L42.3065 335.699L42.3065 312.414L1.25141 312.414L1.25141 336.467C1.25141 345.039 5.79905 351.5 13.0626 351.5C16.7892 351.5 19.8841 349.389 21.9684 346.191L22.6001 346.191ZM17.2945 323.289L17.2945 336.467C17.2945 338.898 16.0944 340.497 14.0101 340.497C11.8626 340.497 10.5993 338.898 10.5993 336.467L10.5993 323.289L17.2945 323.289ZM11.0928 323.789L11.0928 336.467C11.0928 337.6 11.3871 338.482 11.8771 339.072C12.3583 339.652 13.067 339.998 14.0101 339.998C14.9156 339.998 15.5906 339.656 16.0499 339.08C16.5196 338.49 16.801 337.606 16.801 336.467L16.801 323.789L11.0928 323.789ZM32.9586 323.289L32.9586 335.699C32.9586 338.13 31.8217 339.73 29.8636 339.73C27.8425 339.73 26.6424 338.13 26.6424 335.699L26.6424 323.289L32.9586 323.289ZM27.1358 323.789L27.1358 335.699C27.1358 336.838 27.4173 337.724 27.8813 338.315C28.3349 338.893 28.9946 339.23 29.8636 339.23C30.6944 339.23 31.3205 338.898 31.7527 338.323C32.1968 337.733 32.4651 336.843 32.4651 335.699L32.4651 323.789L27.1358 323.789ZM1.25139 0.499772L1.25139 11.3748L42.3065 11.3748L42.3065 0.49977L1.25139 0.499772ZM17.4208 240.876C12.9995 239.276 10.473 235.182 10.473 229.681C10.473 222.516 14.768 217.782 22.0316 217.782C29.232 217.782 33.527 222.516 33.527 229.681C33.527 235.182 31.0005 239.212 26.5792 240.812L26.5792 252.07L29.232 252.07C38.201 249.192 43.5066 240.3 43.5066 229.681C43.5066 216.439 35.1692 206.715 22.0316 206.715C8.89396 206.715 0.49346 216.439 0.49346 229.681C0.493461 240.876 6.80963 249.64 14.768 252.07L17.4208 252.07L17.4208 240.876Z" fill="#FCCA7C" fill-opacity="0.4"/>
</svg>
