<svg width="64" height="87" viewBox="0 0 64 87" fill="none" xmlns="http://www.w3.org/2000/svg">
<path fill-rule="evenodd" clip-rule="evenodd" d="M-15.9965 59.0195V52.48H8.32507L8.50538 53.2528C9.34608 56.8558 11.2832 59.6448 14.1063 61.5466C16.9432 63.4579 20.7353 64.512 25.3235 64.512C29.3565 64.512 32.8736 63.6409 35.3463 62.1306C37.798 60.6332 39.1715 58.5539 39.1715 56.04C39.1715 53.6096 37.8523 51.5714 35.1183 50.0868C32.3461 48.5815 28.1813 47.696 22.7635 47.696C19.5361 47.696 15.5191 48.3207 12.7452 48.9511L12.1707 49.0817L1.31322 36.9384L23.2757 20.944H-12.7965V0H59.9875V13.0143L36.9658 30.6121C52.4522 33.6655 63.3155 43.7881 63.3155 58.216C63.3155 66.9744 58.9227 74.1386 51.9835 79.0787C45.0623 84.0059 35.6005 86.736 25.3235 86.736C6.13471 86.736 -10.4143 75.633 -15.9444 59.1745L-15.9965 59.0195ZM35.897 31.4291C35.4485 31.3495 34.9959 31.2757 34.5395 31.208L58.9875 12.52V1H-11.7965V19.944H26.3475L2.79554 37.096L12.5235 47.976C15.3395 47.336 19.4355 46.696 22.7635 46.696C33.7715 46.696 40.1715 50.28 40.1715 56.04C40.1715 61.928 33.6435 65.512 25.3235 65.512C15.8515 65.512 9.32354 61.16 7.53154 53.48H-14.9965V58.856C-9.62046 74.856 6.50754 85.736 25.3235 85.736C45.5475 85.736 62.3155 74.984 62.3155 58.216C62.3155 44.1549 51.5494 34.2068 35.897 31.4291Z" fill="white"/>
</svg>
