<svg width="65" height="87" viewBox="0 0 65 87" fill="none" xmlns="http://www.w3.org/2000/svg">
<path fill-rule="evenodd" clip-rule="evenodd" d="M-16.624 59.0133V52.48H7.69751L7.87782 53.2528C8.71852 56.8558 10.6556 59.6448 13.4787 61.5466C16.3157 63.4579 20.1078 64.512 24.696 64.512C29.9631 64.512 33.9262 63.4739 36.5435 61.6653C39.1118 59.8906 40.464 57.3232 40.464 53.992C40.464 50.8283 38.8251 48.2796 35.7279 46.4716C32.5919 44.6411 27.9878 43.6 22.264 43.6C17.143 43.6 12.5434 44.5997 8.83758 46.2056L8.64733 46.288H-11.8695L-7.05338 0H58.72V20.944H11.5244L11.1046 25.3107C15.5448 24.3229 20.3938 23.68 24.312 23.68C36.3082 23.68 46.3666 26.6944 53.4509 32.1603C60.5596 37.6451 64.608 45.5532 64.608 55.144C64.608 64.815 60.3223 72.7503 53.1604 78.2416C46.0199 83.7166 36.0628 86.736 24.696 86.736C5.51432 86.736 -11.3026 75.5096 -16.5757 59.163L-16.624 59.0133ZM11.0038 26.3583C10.6584 26.4368 10.3155 26.5174 9.97598 26.6L10.616 19.944H57.72V1H-6.15202L-10.76 45.288H8.43998C12.28 43.624 17.016 42.6 22.264 42.6C33.912 42.6 41.464 46.824 41.464 53.992C41.464 61.288 35.448 65.512 24.696 65.512C15.224 65.512 8.69598 61.16 6.90398 53.48H-15.624V58.856C-10.504 74.728 5.87998 85.736 24.696 85.736C47.096 85.736 63.608 73.832 63.608 55.144C63.608 36.584 47.992 24.68 24.312 24.68C20.3908 24.68 15.4769 25.3418 11.0038 26.3583Z" fill="white"/>
</svg>
