<svg width="76" height="88" viewBox="0 0 76 88" fill="none" xmlns="http://www.w3.org/2000/svg">
<path fill-rule="evenodd" clip-rule="evenodd" d="M2.56 87.632V70.0508L3.22929 69.8163C10.6281 67.2235 22.2876 61.5073 32.0825 54.5064C36.979 51.0067 41.3708 47.2131 44.5286 43.3601C47.6991 39.4916 49.536 35.6731 49.536 32.104C49.536 29.1212 48.3757 26.6842 46.3684 24.9779C44.3465 23.2593 41.3928 22.224 37.736 22.224C34.1187 22.224 31.1913 23.3644 28.9886 25.3027C26.7778 27.2482 25.2374 30.0513 24.5058 33.4655L24.3364 34.256H0V27.7498L0.0333548 27.6239C4.13245 12.1531 20.9593 0 38.888 0C48.7424 0 57.4281 2.90423 63.6696 8.06961C69.9255 13.247 73.68 20.6629 73.68 29.544C73.68 37.0742 70.4148 44.2638 65.1902 50.823C60.5757 56.6164 54.3973 61.9644 47.4652 66.688H75.6V87.632H2.56ZM44.136 67.688C44.6517 67.358 45.1638 67.0246 45.672 66.688C60.9315 56.5806 72.68 43.5418 72.68 29.544C72.68 12.392 58.216 1 38.888 1C21.352 1 4.968 12.904 1 27.88V33.256H23.528C25.064 26.088 30.056 21.224 37.736 21.224C45.416 21.224 50.536 25.576 50.536 32.104C50.536 47.72 18.536 65.512 3.56 70.76V86.632H74.6V67.688H44.136Z" fill="white"/>
</svg>
