<svg width="61" height="88" viewBox="0 0 61 88" fill="none" xmlns="http://www.w3.org/2000/svg">
<path fill-rule="evenodd" clip-rule="evenodd" d="M-12.3915 87.632V70.0508L-11.7222 69.8163C-4.32348 67.2235 7.33607 61.5073 17.131 54.5064C22.0275 51.0067 26.4193 47.2131 29.577 43.3601C32.7476 39.4916 34.5845 35.6731 34.5845 32.104C34.5845 29.1212 33.4242 26.6842 31.4168 24.9779C29.3949 23.2593 26.4412 22.224 22.7845 22.224C19.1672 22.224 16.2397 23.3644 14.0371 25.3027C11.8263 27.2482 10.2859 30.0513 9.55427 33.4655L9.38488 34.256H-14.9515V27.7498L-14.9182 27.6239C-10.8191 12.1531 6.00777 0 23.9365 0C33.7908 0 42.4765 2.90423 48.718 8.06961C54.974 13.247 58.7285 20.6629 58.7285 29.544C58.7285 37.0742 55.4633 44.2638 50.2387 50.823C45.6241 56.6164 39.4458 61.9644 32.5136 66.688H60.6485V87.632H-12.3915ZM29.1845 67.688C29.7001 67.358 30.2122 67.0246 30.7204 66.688C45.98 56.5806 57.7285 43.5418 57.7285 29.544C57.7285 12.392 43.2645 1 23.9365 1C6.40046 1 -9.98354 12.904 -13.9515 27.88V33.256H8.57646C10.1125 26.088 15.1045 21.224 22.7845 21.224C30.4645 21.224 35.5845 25.576 35.5845 32.104C35.5845 47.72 3.58446 65.512 -11.3915 70.76V86.632H59.6485V67.688H29.1845Z" fill="white"/>
</svg>
