<svg width="80" height="87" viewBox="0 0 80 87" fill="none" xmlns="http://www.w3.org/2000/svg">
<path fill-rule="evenodd" clip-rule="evenodd" d="M0 59.0195V52.48H24.3215L24.5018 53.2528C25.3425 56.8558 27.2796 59.6448 30.1027 61.5466C32.9397 63.4579 36.7318 64.512 41.32 64.512C45.3529 64.512 48.87 63.6409 51.3428 62.1306C53.7944 60.6332 55.168 58.5539 55.168 56.04C55.168 53.6096 53.8487 51.5714 51.1148 50.0868C48.3426 48.5815 44.1777 47.696 38.76 47.696C35.5325 47.696 31.5156 48.3207 28.7416 48.9511L28.1672 49.0817L17.3097 36.9384L39.2722 20.944H3.2V0H75.984V13.0143L52.9623 30.6121C68.4486 33.6655 79.312 43.7881 79.312 58.216C79.312 66.9744 74.9191 74.1386 67.98 79.0787C61.0587 84.0059 51.597 86.736 41.32 86.736C22.1312 86.736 5.58213 75.633 0.0520778 59.1745L0 59.0195ZM51.8935 31.4291C51.4449 31.3495 50.9924 31.2757 50.536 31.208L74.984 12.52V1H4.2V19.944H42.344L18.792 37.096L28.52 47.976C31.336 47.336 35.432 46.696 38.76 46.696C49.768 46.696 56.168 50.28 56.168 56.04C56.168 61.928 49.64 65.512 41.32 65.512C31.848 65.512 25.32 61.16 23.528 53.48H1V58.856C6.376 74.856 22.504 85.736 41.32 85.736C61.544 85.736 78.312 74.984 78.312 58.216C78.312 44.1549 67.5458 34.2068 51.8935 31.4291Z" fill="white"/>
</svg>
