<svg width="82" height="87" viewBox="0 0 82 87" fill="none" xmlns="http://www.w3.org/2000/svg">
<path fill-rule="evenodd" clip-rule="evenodd" d="M0 59.0133V52.48H24.3215L24.5018 53.2528C25.3425 56.8558 27.2796 59.6448 30.1027 61.5466C32.9397 63.4579 36.7318 64.512 41.32 64.512C46.5871 64.512 50.5502 63.4739 53.1675 61.6653C55.7359 59.8906 57.088 57.3232 57.088 53.992C57.088 50.8283 55.4491 48.2796 52.3519 46.4716C49.2159 44.6411 44.6118 43.6 38.888 43.6C33.767 43.6 29.1674 44.5997 25.4616 46.2056L25.2714 46.288H4.75456L9.57065 0H75.344V20.944H28.1485L27.7286 25.3107C32.1688 24.3229 37.0179 23.68 40.936 23.68C52.9322 23.68 62.9907 26.6944 70.0749 32.1603C77.1836 37.6451 81.232 45.5532 81.232 55.144C81.232 64.815 76.9463 72.7503 69.7845 78.2416C62.6439 83.7166 52.6868 86.736 41.32 86.736C22.1383 86.736 5.32138 75.5096 0.0482912 59.163L0 59.0133ZM27.6279 26.3583C27.2824 26.4368 26.9396 26.5174 26.6 26.6L27.24 19.944H74.344V1H10.472L5.864 45.288H25.064C28.904 43.624 33.64 42.6 38.888 42.6C50.536 42.6 58.088 46.824 58.088 53.992C58.088 61.288 52.072 65.512 41.32 65.512C31.848 65.512 25.32 61.16 23.528 53.48H1V58.856C6.12 74.728 22.504 85.736 41.32 85.736C63.72 85.736 80.232 73.832 80.232 55.144C80.232 36.584 64.616 24.68 40.936 24.68C37.0148 24.68 32.1009 25.3418 27.6279 26.3583Z" fill="white"/>
</svg>
